# xmcd CD database file
#
# Track frame offsets:
#	150
#	14196
#	27792
#	44251
#	61966
#	80552
#	96911
#	111827
#	135141
#	151959
#	164144
#	181964
#
# Disc length: 2680 seconds
#
# Revision: 2
# Processed by: cddbd v1.5.2PL0 Copyright (c) Steve Scherf et al.
# Submitted via: CDex 1.51
#
DISCID=9a0a760c
DTITLE=Lauren Alaina - Wildflower
DYEAR=2011
DGENRE=Country
TTITLE0=Georgia Peaches
TTITLE1=Growing Her Wings
TTITLE2=Tupelo
TTITLE3=The Middle
TTITLE4=Like My Mother Does
TTITLE5=She's A Wildflower
TTITLE6=I'm Not One Of Them
TTITLE7=The Locket
TTITLE8=Eighteen Inches
TTITLE9=One Of Those Boys
TTITLE10=Funny Thing About Love
TTITLE11=Dirt Road Prayer
EXTD=YEAR: 2011
EXTT0=
EXTT1=
EXTT2=
EXTT3=
EXTT4=
EXTT5=
EXTT6=
EXTT7=
EXTT8=
EXTT9=
EXTT10=
EXTT11=
PLAYORDER=
